<svg width="184" height="122" viewBox="0 0 184 122" fill="none" xmlns="http://www.w3.org/2000/svg">
<path d="M167.3 78.3H128.3L119.9 97H112.2L144.2 27H151.5L183.5 97H175.7L167.3 78.3ZM164.6 72.3L147.8 34.7L131 72.3H164.6Z" fill="white"/>
<path d="M61.9 90.6V97H4.5V91.9L50.9 33.4H5.2V27H60.7V32.1L14.4 90.6H61.9Z" fill="white"/>
<path d="M87.6 97.6C78.5333 97.6 71.4667 95 66.4 89.8C61.3333 84.6 58.8 77.0333 58.8 67.1V27H66.2V66.8C66.2 74.9333 68.0333 81 71.7 85C75.3667 89 80.6667 91 87.6 91C94.6 91 99.9333 89 103.6 85C107.267 81 109.1 74.9333 109.1 66.8V27H116.3V67.1C116.3 77.0333 113.767 84.6 108.7 89.8C103.7 95 96.6667 97.6 87.6 97.6Z" fill="white"/>
<path d="M110.4 27H117.8V90.6H157V97H110.4V27Z" fill="white"/>
</svg>
