<svg width="220" height="32" viewBox="0 0 220 32" fill="none" xmlns="http://www.w3.org/2000/svg">
<path fill-rule="evenodd" clip-rule="evenodd" d="M0 16C0 7.16344 7.16344 0 16 0C24.8366 0 32 7.16344 32 16C32 24.8366 24.8366 32 16 32C7.16344 32 0 24.8366 0 16ZM18.3722 12.4466H22.8917V11.1517H18.3722V12.4466ZM22.4934 13.5336C21.9495 13.293 21.3384 13.1722 20.6591 13.1722C19.5161 13.1722 18.5879 13.5296 17.8705 14.2394C17.155 14.9512 16.7968 15.9738 16.7968 17.3072C16.7968 18.7288 17.1921 19.7564 17.9879 20.3869C18.7796 21.0185 19.6957 21.3333 20.7343 21.3333C21.9916 21.3333 22.97 20.9591 23.6684 20.2117C24.1159 19.7405 24.3688 19.2762 24.424 18.8209H22.3418C22.2214 19.0466 22.0809 19.2228 21.9214 19.3505C21.6314 19.5851 21.2531 19.7029 20.7905 19.7029C20.351 19.7029 19.9767 19.6059 19.6656 19.4128C19.1519 19.103 18.8829 18.5615 18.8488 17.7903H24.5314C24.5404 17.1261 24.5183 16.6153 24.4631 16.2628C24.3688 15.66 24.1621 15.1293 23.84 14.672C23.4868 14.1533 23.0382 13.7731 22.4934 13.5336ZM15.2966 11.7754C14.7598 11.0547 13.8496 10.6855 12.5632 10.6667H7.46667V21.071H12.219C12.7549 21.071 13.2506 21.0255 13.7091 20.9314C14.1677 20.8364 14.5641 20.6631 14.9002 20.4087C15.1993 20.187 15.4481 19.9138 15.6468 19.59C15.9609 19.101 16.1174 18.5476 16.1174 17.9309C16.1174 17.333 15.98 16.8241 15.707 16.4064C15.4311 15.9876 15.0257 15.6817 14.4878 15.4877C14.842 15.3095 15.11 15.1115 15.2926 14.8957C15.6187 14.5096 15.7803 13.9978 15.7803 13.3633C15.7803 12.7465 15.6187 12.2179 15.2966 11.7754Z" fill="white"/>
<path fill-rule="evenodd" clip-rule="evenodd" d="M9.56885 12.4733H11.8647C12.3695 12.4733 12.7849 12.5278 13.112 12.6357C13.4893 12.7921 13.678 13.1118 13.678 13.5979C13.678 14.0335 13.5345 14.3384 13.2495 14.5106C12.9625 14.6829 12.5902 14.769 12.1337 14.769H9.56885V12.4733ZM19.4428 15.2719C19.7308 14.9789 20.1382 14.8324 20.66 14.8324C21.1417 14.8324 21.544 14.97 21.8712 15.2462C22.1943 15.5243 22.3769 15.9282 22.414 16.4628H18.8989C18.9732 15.9619 19.1548 15.5649 19.4428 15.2719ZM9.56885 16.4905H12.1658C12.6173 16.4945 12.9695 16.5539 13.2204 16.6667C13.669 16.8697 13.8917 17.2409 13.8917 17.7834C13.8917 18.4229 13.6609 18.8545 13.1983 19.0822C12.9445 19.204 12.5872 19.2653 12.1297 19.2653H9.56885V16.4905Z" fill="white"/>
<path fill-rule="evenodd" clip-rule="evenodd" d="M28.079 32C32.2345 28.9847 35.0688 22.9639 35.0688 16.0284C35.0688 9.04911 32.1985 2.99608 28 0H209.797C222.951 6.36456 223.228 25.0015 210.269 31.7541L209.797 32H28.079Z" fill="white"/>
<path d="M67.2888 15.336C68.3928 15.576 69.2408 16.056 69.8328 16.776C70.4408 17.48 70.7448 18.392 70.7448 19.512C70.7448 20.952 70.2088 22.064 69.1368 22.848C68.0808 23.616 66.5128 24 64.4328 24H56.7048V7.2H63.9528C65.8248 7.2 67.2728 7.576 68.2968 8.328C69.3368 9.08 69.8568 10.144 69.8568 11.52C69.8568 12.448 69.6248 13.24 69.1608 13.896C68.7128 14.536 68.0888 15.016 67.2888 15.336ZM58.4808 8.664V14.76H63.8328C65.1928 14.76 66.2408 14.504 66.9768 13.992C67.7128 13.464 68.0807 12.704 68.0807 11.712C68.0807 10.72 67.7128 9.968 66.9768 9.456C66.2408 8.928 65.1928 8.664 63.8328 8.664H58.4808ZM64.4088 22.536C65.9128 22.536 67.0488 22.28 67.8168 21.768C68.5848 21.256 68.9688 20.456 68.9688 19.368C68.9688 17.272 67.4488 16.224 64.4088 16.224H58.4808V22.536H64.4088ZM86.6785 22.464V24H74.7985V7.2H86.3185V8.736H76.5745V14.712H85.2625V16.224H76.5745V22.464H86.6785ZM104.893 7.2V24H103.141V16.248H92.6292V24H90.8532V7.2H92.6292V14.688H103.141V7.2H104.893ZM120.913 19.512H111.553L109.537 24H107.689L115.369 7.2H117.121L124.801 24H122.929L120.913 19.512ZM120.265 18.072L116.233 9.048L112.201 18.072H120.265ZM141.62 7.2V24H140.156L129.356 10.368V24H127.58V7.2H129.044L139.868 20.832V7.2H141.62ZM154.399 24.144C152.735 24.144 151.231 23.776 149.887 23.04C148.559 22.304 147.511 21.288 146.743 19.992C145.991 18.68 145.615 17.216 145.615 15.6C145.615 13.984 145.991 12.528 146.743 11.232C147.511 9.92 148.567 8.896 149.911 8.16C151.255 7.424 152.759 7.056 154.423 7.056C155.671 7.056 156.823 7.264 157.879 7.68C158.935 8.096 159.831 8.704 160.567 9.504L159.439 10.632C158.127 9.304 156.471 8.64 154.471 8.64C153.143 8.64 151.935 8.944 150.847 9.552C149.759 10.16 148.903 10.992 148.279 12.048C147.671 13.104 147.367 14.288 147.367 15.6C147.367 16.912 147.671 18.096 148.279 19.152C148.903 20.208 149.759 21.04 150.847 21.648C151.935 22.256 153.143 22.56 154.471 22.56C156.487 22.56 158.143 21.888 159.439 20.544L160.567 21.672C159.831 22.472 158.927 23.088 157.855 23.52C156.799 23.936 155.647 24.144 154.399 24.144ZM176.233 22.464V24H164.353V7.2H175.873V8.736H166.129V14.712H174.817V16.224H166.129V22.464H176.233Z" fill="#7B8B97"/>
</svg>
