<svg width="220" height="32" viewBox="0 0 220 32" fill="none" xmlns="http://www.w3.org/2000/svg">
<path fill-rule="evenodd" clip-rule="evenodd" d="M28.079 32C32.2345 28.9847 35.0688 22.9639 35.0688 16.0284C35.0688 9.04911 32.1985 2.99608 28 0H209.797C222.951 6.36456 223.228 25.0015 210.269 31.7541L209.797 32H28.079Z" fill="white"/>
<path d="M62.9928 7.2C65.1368 7.2 66.8168 7.712 68.0328 8.736C69.2488 9.76 69.8568 11.168 69.8568 12.96C69.8568 14.752 69.2488 16.16 68.0328 17.184C66.8168 18.192 65.1368 18.696 62.9928 18.696H58.4808V24H56.7048V7.2H62.9928ZM62.9448 17.136C64.6088 17.136 65.8808 16.776 66.7608 16.056C67.6408 15.32 68.0807 14.288 68.0807 12.96C68.0807 11.6 67.6408 10.56 66.7608 9.84C65.8808 9.104 64.6088 8.736 62.9448 8.736H58.4808V17.136H62.9448ZM73.6969 7.2H75.4729V24H73.6969V7.2ZM94.9791 7.2V24H93.5151L82.7151 10.368V24H80.9391V7.2H82.4031L93.2271 20.832V7.2H94.9791ZM103.727 8.736H97.8226V7.2H111.407V8.736H105.503V24H103.727V8.736ZM126.124 22.464V24H114.244V7.2H125.764V8.736H116.02V14.712H124.708V16.224H116.02V22.464H126.124ZM141.771 24L137.931 18.6C137.499 18.648 137.051 18.672 136.587 18.672H132.075V24H130.299V7.2H136.587C138.731 7.2 140.411 7.712 141.627 8.736C142.843 9.76 143.451 11.168 143.451 12.96C143.451 14.272 143.115 15.384 142.443 16.296C141.787 17.192 140.843 17.84 139.611 18.24L143.715 24H141.771ZM136.539 17.16C138.203 17.16 139.475 16.792 140.355 16.056C141.235 15.32 141.674 14.288 141.674 12.96C141.674 11.6 141.235 10.56 140.355 9.84C139.475 9.104 138.203 8.736 136.539 8.736H132.075V17.16H136.539ZM159.522 22.464V24H147.642V7.2H159.162V8.736H149.418V14.712H158.106V16.224H149.418V22.464H159.522ZM168.329 24.144C167.081 24.144 165.881 23.944 164.729 23.544C163.593 23.144 162.713 22.616 162.089 21.96L162.785 20.592C163.393 21.2 164.201 21.696 165.209 22.08C166.217 22.448 167.257 22.632 168.329 22.632C169.833 22.632 170.961 22.36 171.713 21.816C172.465 21.256 172.841 20.536 172.841 19.656C172.841 18.984 172.633 18.448 172.217 18.048C171.817 17.648 171.321 17.344 170.729 17.136C170.137 16.912 169.313 16.672 168.257 16.416C166.993 16.096 165.985 15.792 165.233 15.504C164.481 15.2 163.833 14.744 163.289 14.136C162.761 13.528 162.497 12.704 162.497 11.664C162.497 10.816 162.721 10.048 163.169 9.36C163.617 8.656 164.305 8.096 165.233 7.68C166.161 7.264 167.313 7.056 168.689 7.056C169.649 7.056 170.585 7.192 171.497 7.464C172.425 7.72 173.225 8.08 173.897 8.544L173.297 9.96C172.593 9.496 171.841 9.152 171.041 8.928C170.241 8.688 169.457 8.568 168.689 8.568C167.217 8.568 166.105 8.856 165.353 9.432C164.617 9.992 164.249 10.72 164.249 11.616C164.249 12.288 164.449 12.832 164.849 13.248C165.265 13.648 165.777 13.96 166.385 14.184C167.009 14.392 167.841 14.624 168.881 14.88C170.113 15.184 171.105 15.488 171.857 15.792C172.625 16.08 173.273 16.528 173.801 17.136C174.329 17.728 174.593 18.536 174.593 19.56C174.593 20.408 174.361 21.184 173.897 21.888C173.449 22.576 172.753 23.128 171.809 23.544C170.865 23.944 169.705 24.144 168.329 24.144ZM181.492 8.736H175.588V7.2H189.172V8.736H183.268V24H181.492V8.736Z" fill="#7B8B97"/>
<path fill-rule="evenodd" clip-rule="evenodd" d="M15.9736 31.6555C7.15028 31.6555 0.000244141 24.6138 0.000244141 15.9301C0.000244141 7.24627 7.15028 0.206268 15.9736 0.206268C24.7952 0.206268 31.947 7.24627 31.947 15.9301C31.947 24.6138 24.7952 31.6555 15.9736 31.6555ZM1.47816 15.9302C1.47816 21.9664 5.29356 27.1235 10.6779 29.2001C10.5513 28.0734 10.4384 26.3437 10.7292 25.1109C10.991 23.9993 12.4265 18.0288 12.4265 18.0288C12.4265 18.0288 11.9936 17.1749 11.9936 15.9134C11.9936 13.9311 13.1588 12.4523 14.6131 12.4523C15.8467 12.4523 16.4438 13.3652 16.4438 14.4599C16.4438 15.6826 15.6533 17.51 15.2444 19.2043C14.9039 20.6241 15.9681 21.7795 17.3882 21.7795C19.9615 21.7795 21.9393 19.1083 21.9393 15.2532C21.9393 11.841 19.4499 9.45612 15.8929 9.45612C11.7746 9.45612 9.35705 12.4978 9.35705 15.6405C9.35705 16.865 9.83441 18.1786 10.4332 18.8928C10.5513 19.0342 10.5684 19.1572 10.5342 19.302C10.4247 19.7517 10.18 20.7201 10.1321 20.9172C10.0688 21.1782 9.92167 21.2338 9.6462 21.1092C7.83945 20.2805 6.71022 17.6768 6.71022 15.5883C6.71022 11.0932 10.0277 6.96349 16.2744 6.96349C21.296 6.96349 25.1987 10.4869 25.1987 15.1942C25.1987 20.1054 22.0523 24.0582 17.6876 24.0582C16.2196 24.0582 14.8406 23.3071 14.3684 22.4212C14.3684 22.4212 13.643 25.1412 13.4667 25.8081C13.1399 27.046 12.2571 28.5972 11.6685 29.5437C13.0219 29.958 14.4608 30.1803 15.9545 30.1803C23.9497 30.1803 30.4307 23.8005 30.4307 15.9302C30.4307 8.05823 23.9497 1.68012 15.9545 1.68012C7.95921 1.68012 1.47816 8.05823 1.47816 15.9302Z" fill="white"/>
</svg>
