<svg width="220" height="32" viewBox="0 0 220 32" fill="none" xmlns="http://www.w3.org/2000/svg">
<path fill-rule="evenodd" clip-rule="evenodd" d="M0 16C0 7.16344 7.16344 0 16 0C24.8366 0 32 7.16344 32 16C32 24.8366 24.8366 32 16 32C7.16344 32 0 24.8366 0 16ZM16.837 21.2507C16.837 21.2507 17.145 21.2171 17.3027 21.0508C17.4472 20.8984 17.4421 20.6108 17.4421 20.6108C17.4421 20.6108 17.4229 19.2678 18.0582 19.0696C18.6842 18.8746 19.4881 20.3683 20.3412 20.9426C20.9856 21.3769 21.4747 21.2819 21.4747 21.2819L23.7544 21.2507C23.7544 21.2507 24.9464 21.1786 24.3813 20.2585C24.3345 20.1831 24.0516 19.5776 22.6868 18.3338C21.2569 17.0318 21.4489 17.2424 23.1701 14.9899C24.2185 13.6183 24.6375 12.7809 24.5065 12.4228C24.3821 12.0803 23.6108 12.1713 23.6108 12.1713L21.0448 12.1869C21.0448 12.1869 20.8545 12.1615 20.7135 12.2442C20.5757 12.3253 20.4864 12.5146 20.4864 12.5146C20.4864 12.5146 20.0807 13.5757 19.539 14.4786C18.3962 16.3829 17.9396 16.4836 17.7527 16.3656C17.3178 16.0895 17.4263 15.2579 17.4263 14.6671C17.4263 12.8211 17.7118 12.0517 16.8712 11.8526C16.5924 11.7862 16.387 11.7428 15.6734 11.7354C14.7577 11.7264 13.983 11.7387 13.544 11.9492C13.2518 12.0894 13.0264 12.4024 13.1642 12.4204C13.3336 12.4425 13.7176 12.522 13.9213 12.794C14.1842 13.1455 14.175 13.9338 14.175 13.9338C14.175 13.9338 14.3261 16.1067 13.8219 16.3763C13.4763 16.5615 13.0022 16.1837 11.983 14.4557C11.4613 13.5708 11.0673 12.5924 11.0673 12.5924C11.0673 12.5924 10.9913 12.4097 10.8553 12.3114C10.6908 12.1926 10.4613 12.1557 10.4613 12.1557L8.02304 12.1713C8.02304 12.1713 7.65659 12.1811 7.5222 12.3376C7.40284 12.4761 7.51302 12.7637 7.51302 12.7637C7.51302 12.7637 9.42205 17.1481 11.584 19.358C13.5665 21.3835 15.8169 21.2507 15.8169 21.2507H16.837Z" fill="white"/>
<path fill-rule="evenodd" clip-rule="evenodd" d="M28.079 32C32.2345 28.9847 35.0688 22.9639 35.0688 16.0284C35.0688 9.04911 32.1985 2.99608 28 0H209.797C222.951 6.36456 223.228 25.0015 210.269 31.7541L209.797 32H28.079Z" fill="white"/>
<path d="M66.7608 15.336C67.9288 15.576 68.8168 16.048 69.4248 16.752C70.0328 17.44 70.3368 18.344 70.3368 19.464C70.3368 20.92 69.8168 22.04 68.7768 22.824C67.7528 23.608 66.2408 24 64.2408 24H56.8008V7.2H63.7848C65.5768 7.2 66.9768 7.568 67.9848 8.304C68.9928 9.04 69.4968 10.104 69.4968 11.496C69.4968 12.44 69.2568 13.24 68.7768 13.896C68.2968 14.536 67.6248 15.016 66.7608 15.336ZM58.5528 14.808H63.6888C64.9848 14.808 65.9768 14.544 66.6648 14.016C67.3688 13.488 67.7208 12.72 67.7208 11.712C67.7208 10.704 67.3688 9.936 66.6648 9.408C65.9768 8.88 64.9848 8.616 63.6888 8.616H58.5528V14.808ZM64.2408 22.584C67.1368 22.584 68.5848 21.504 68.5848 19.344C68.5848 17.232 67.1368 16.176 64.2408 16.176H58.5528V22.584H64.2408ZM80.3453 16.296H76.5053V24H74.7773V7.2H76.5053V14.736H80.3453L86.0333 7.2H87.9533L81.7133 15.36L88.3133 24H86.2733L80.3453 16.296ZM98.3875 24.144C96.7235 24.144 95.2115 23.776 93.8515 23.04C92.5075 22.288 91.4515 21.264 90.6835 19.968C89.9315 18.672 89.5555 17.216 89.5555 15.6C89.5555 13.984 89.9315 12.528 90.6835 11.232C91.4515 9.936 92.5075 8.92 93.8515 8.184C95.2115 7.432 96.7235 7.056 98.3875 7.056C100.052 7.056 101.548 7.424 102.876 8.16C104.22 8.896 105.276 9.92 106.044 11.232C106.812 12.528 107.196 13.984 107.196 15.6C107.196 17.216 106.812 18.68 106.044 19.992C105.276 21.288 104.22 22.304 102.876 23.04C101.548 23.776 100.052 24.144 98.3875 24.144ZM98.3875 22.56C99.7155 22.56 100.916 22.264 101.988 21.672C103.06 21.064 103.9 20.232 104.508 19.176C105.116 18.104 105.42 16.912 105.42 15.6C105.42 14.288 105.116 13.104 104.508 12.048C103.9 10.976 103.06 10.144 101.988 9.552C100.916 8.944 99.7155 8.64 98.3875 8.64C97.0595 8.64 95.8515 8.944 94.7635 9.552C93.6915 10.144 92.8435 10.976 92.2195 12.048C91.6115 13.104 91.3075 14.288 91.3075 15.6C91.3075 16.912 91.6115 18.104 92.2195 19.176C92.8435 20.232 93.6915 21.064 94.7635 21.672C95.8515 22.264 97.0595 22.56 98.3875 22.56ZM125.474 7.2V24H123.722V16.248H113.21V24H111.434V7.2H113.21V14.688H123.722V7.2H125.474ZM142.137 8.736H136.233V24H134.48V8.736H128.577V7.2H142.137V8.736ZM155.162 19.512H145.802L143.786 24H141.938L149.618 7.2H151.37L159.05 24H157.178L155.162 19.512ZM154.514 18.072L150.482 9.048L146.45 18.072H154.514ZM167.838 16.296H163.998V24H162.27V7.2H163.998V14.736H167.838L173.526 7.2H175.446L169.206 15.36L175.806 24H173.766L167.838 16.296ZM189.387 8.736H183.483V24H181.73V8.736H175.827V7.2H189.387V8.736ZM204.384 22.464V24H192.504V7.2H204.024V8.736H194.28V14.712H202.968V16.224H194.28V22.464H204.384Z" fill="#7B8B97"/>
</svg>
