<svg width="220" height="32" viewBox="0 0 220 32" fill="none" xmlns="http://www.w3.org/2000/svg">
<path fill-rule="evenodd" clip-rule="evenodd" d="M0 16C0 7.16344 7.16344 0 16 0C24.8366 0 32 7.16344 32 16C32 24.8366 24.8366 32 16 32C7.16344 32 0 24.8366 0 16ZM16.0008 7.46667C13.6833 7.46667 13.3924 7.4768 12.4822 7.51822C11.5737 7.55982 10.9536 7.70365 10.4111 7.91467C9.8498 8.13263 9.37371 8.42419 8.89939 8.89868C8.42472 9.373 8.13316 9.84909 7.91449 10.4102C7.70293 10.9529 7.55893 11.5732 7.51804 12.4813C7.47733 13.3915 7.46667 13.6826 7.46667 16.0001C7.46667 18.3176 7.47698 18.6076 7.51822 19.5178C7.56 20.4263 7.70382 21.0464 7.91467 21.5889C8.13281 22.1502 8.42436 22.6263 8.89886 23.1006C9.373 23.5753 9.84909 23.8675 10.41 24.0855C10.9529 24.2965 11.5732 24.4404 12.4815 24.482C13.3917 24.5234 13.6824 24.5335 15.9997 24.5335C18.3174 24.5335 18.6074 24.5234 19.5176 24.482C20.4261 24.4404 21.0469 24.2965 21.5898 24.0855C22.1509 23.8675 22.6263 23.5753 23.1004 23.1006C23.5751 22.6263 23.8667 22.1502 24.0853 21.5891C24.2951 21.0464 24.4391 20.4261 24.4818 19.518C24.5227 18.6078 24.5333 18.3176 24.5333 16.0001C24.5333 13.6826 24.5227 13.3917 24.4818 12.4815C24.4391 11.573 24.2951 10.9529 24.0853 10.4103C23.8667 9.84909 23.5751 9.373 23.1004 8.89868C22.6258 8.42401 22.1511 8.13245 21.5893 7.91467C21.0453 7.70365 20.4248 7.55982 19.5164 7.51822C18.6062 7.4768 18.3164 7.46667 15.9981 7.46667H16.0008Z" fill="white"/>
<path fill-rule="evenodd" clip-rule="evenodd" d="M15.2353 9.00446C15.4625 9.00411 15.716 9.00446 16.0008 9.00446C18.2792 9.00446 18.5493 9.01264 19.449 9.05353C20.281 9.09157 20.7326 9.2306 21.0334 9.3474C21.4316 9.50207 21.7155 9.68696 22.014 9.98563C22.3127 10.2843 22.4976 10.5687 22.6526 10.967C22.7694 11.2674 22.9086 11.719 22.9465 12.551C22.9874 13.4506 22.9962 13.7208 22.9962 15.9981C22.9962 18.2755 22.9874 18.5457 22.9465 19.4453C22.9084 20.2773 22.7694 20.7288 22.6526 21.0293C22.4979 21.4275 22.3127 21.7111 22.014 22.0096C21.7153 22.3082 21.4318 22.4931 21.0334 22.6478C20.7329 22.7651 20.281 22.9038 19.449 22.9418C18.5494 22.9827 18.2792 22.9916 16.0008 22.9916C13.7222 22.9916 13.4521 22.9827 12.5526 22.9418C11.7206 22.9034 11.269 22.7644 10.968 22.6476C10.5698 22.493 10.2854 22.3081 9.98669 22.0094C9.68802 21.7107 9.50313 21.427 9.34811 21.0286C9.23131 20.7281 9.0921 20.2766 9.05424 19.4446C9.01335 18.545 9.00517 18.2748 9.00517 15.996C9.00517 13.7172 9.01335 13.4484 9.05424 12.5489C9.09228 11.7168 9.23131 11.2653 9.34811 10.9645C9.50278 10.5663 9.68802 10.2818 9.98669 9.98314C10.2854 9.68447 10.5698 9.49958 10.968 9.34455C11.2688 9.22722 11.7206 9.08855 12.5526 9.05033C13.3398 9.01477 13.6449 9.00411 15.2353 9.00233V9.00446ZM20.5559 10.4214C19.9905 10.4214 19.5319 10.8795 19.5319 11.445C19.5319 12.0104 19.9905 12.469 20.5559 12.469C21.1212 12.469 21.5799 12.0104 21.5799 11.445C21.5799 10.8797 21.1212 10.4214 20.5559 10.4214ZM16.0008 11.6178C13.5807 11.6178 11.6185 13.58 11.6185 16.0001C11.6185 18.4202 13.5807 20.3815 16.0008 20.3815C18.4209 20.3815 20.3824 18.4202 20.3824 16.0001C20.3824 13.58 18.4209 11.6178 16.0008 11.6178Z" fill="white"/>
<path fill-rule="evenodd" clip-rule="evenodd" d="M16.0008 13.1556C17.5717 13.1556 18.8453 14.4291 18.8453 16.0001C18.8453 17.571 17.5717 18.8446 16.0008 18.8446C14.4298 18.8446 13.1563 17.571 13.1563 16.0001C13.1563 14.4291 14.4298 13.1556 16.0008 13.1556Z" fill="white"/>
<path fill-rule="evenodd" clip-rule="evenodd" d="M28.079 32C32.2345 28.9847 35.0688 22.9639 35.0688 16.0284C35.0688 9.04911 32.1985 2.99608 28 0H209.797C222.951 6.36456 223.228 25.0015 210.269 31.7541L209.797 32H28.079Z" fill="white"/>
<path d="M56.7048 7.2H58.4808V24H56.7048V7.2ZM77.9869 7.2V24H76.5229L65.7229 10.368V24H63.9469V7.2H65.4109L76.2349 20.832V7.2H77.9869ZM88.1024 24.144C86.8544 24.144 85.6544 23.944 84.5024 23.544C83.3664 23.144 82.4864 22.616 81.8624 21.96L82.5584 20.592C83.1664 21.2 83.9744 21.696 84.9824 22.08C85.9904 22.448 87.0304 22.632 88.1024 22.632C89.6064 22.632 90.7344 22.36 91.4864 21.816C92.2384 21.256 92.6144 20.536 92.6144 19.656C92.6144 18.984 92.4064 18.448 91.9904 18.048C91.5904 17.648 91.0944 17.344 90.5024 17.136C89.9104 16.912 89.0864 16.672 88.0304 16.416C86.7664 16.096 85.7584 15.792 85.0064 15.504C84.2544 15.2 83.6064 14.744 83.0624 14.136C82.5344 13.528 82.2704 12.704 82.2704 11.664C82.2704 10.816 82.4944 10.048 82.9424 9.36C83.3904 8.656 84.0784 8.096 85.0064 7.68C85.9344 7.264 87.0864 7.056 88.4624 7.056C89.4224 7.056 90.3584 7.192 91.2704 7.464C92.1984 7.72 92.9984 8.08 93.6704 8.544L93.0704 9.96C92.3664 9.496 91.6144 9.152 90.8144 8.928C90.0144 8.688 89.2304 8.568 88.4624 8.568C86.9904 8.568 85.8784 8.856 85.1264 9.432C84.3904 9.992 84.0224 10.72 84.0224 11.616C84.0224 12.288 84.2224 12.832 84.6224 13.248C85.0384 13.648 85.5504 13.96 86.1584 14.184C86.7824 14.392 87.6144 14.624 88.6544 14.88C89.8864 15.184 90.8784 15.488 91.6304 15.792C92.3984 16.08 93.0464 16.528 93.5744 17.136C94.1024 17.728 94.3664 18.536 94.3664 19.56C94.3664 20.408 94.1344 21.184 93.6704 21.888C93.2224 22.576 92.5264 23.128 91.5824 23.544C90.6384 23.944 89.4784 24.144 88.1024 24.144ZM101.266 8.736H95.3616V7.2H108.946V8.736H103.042V24H101.266V8.736ZM121.475 19.512H112.115L110.099 24H108.251L115.931 7.2H117.683L125.363 24H123.491L121.475 19.512ZM120.827 18.072L116.795 9.048L112.763 18.072H120.827ZM139.74 15.6H141.444V22.008C140.66 22.696 139.732 23.224 138.66 23.592C137.588 23.96 136.46 24.144 135.276 24.144C133.596 24.144 132.084 23.776 130.74 23.04C129.396 22.304 128.34 21.288 127.572 19.992C126.804 18.68 126.42 17.216 126.42 15.6C126.42 13.984 126.804 12.528 127.572 11.232C128.34 9.92 129.396 8.896 130.74 8.16C132.084 7.424 133.604 7.056 135.3 7.056C136.58 7.056 137.756 7.264 138.828 7.68C139.9 8.08 140.804 8.68 141.54 9.48L140.436 10.608C139.108 9.296 137.42 8.64 135.372 8.64C134.012 8.64 132.78 8.944 131.676 9.552C130.588 10.144 129.732 10.976 129.108 12.048C128.484 13.104 128.172 14.288 128.172 15.6C128.172 16.912 128.484 18.096 129.108 19.152C129.732 20.208 130.588 21.04 131.676 21.648C132.764 22.256 133.988 22.56 135.348 22.56C137.076 22.56 138.54 22.128 139.74 21.264V15.6ZM157.942 24L154.102 18.6C153.67 18.648 153.222 18.672 152.758 18.672H148.246V24H146.47V7.2H152.758C154.902 7.2 156.582 7.712 157.798 8.736C159.014 9.76 159.622 11.168 159.622 12.96C159.622 14.272 159.286 15.384 158.614 16.296C157.958 17.192 157.014 17.84 155.782 18.24L159.886 24H157.942ZM152.71 17.16C154.374 17.16 155.646 16.792 156.526 16.056C157.406 15.32 157.846 14.288 157.846 12.96C157.846 11.6 157.406 10.56 156.526 9.84C155.646 9.104 154.374 8.736 152.71 8.736H148.246V17.16H152.71ZM174.35 19.512H164.99L162.974 24H161.126L168.806 7.2H170.558L178.238 24H176.366L174.35 19.512ZM173.702 18.072L169.67 9.048L165.638 18.072H173.702ZM198.465 7.2V24H196.761V10.56L190.161 21.864H189.321L182.721 10.632V24H181.017V7.2H182.481L189.777 19.656L197.001 7.2H198.465Z" fill="#7B8B97"/>
</svg>
