<svg width="220" height="32" viewBox="0 0 220 32" fill="none" xmlns="http://www.w3.org/2000/svg">
<path fill-rule="evenodd" clip-rule="evenodd" d="M32 16C32 24.8365 24.8365 32 16 32C7.16347 32 0 24.8365 0 16C0 7.16347 7.16347 0 16 0C24.8365 0 32 7.16347 32 16ZM10.7143 14.5343C9.11153 15.2341 7.46473 15.9532 5.95883 16.7827C5.17251 17.3584 6.21759 17.7657 7.19807 18.1477C7.35393 18.2084 7.50813 18.2685 7.65313 18.3285C7.7738 18.3656 7.89647 18.4047 8.0208 18.4443C9.11127 18.7917 10.3271 19.1791 11.3858 18.5963C13.1249 17.5973 14.766 16.4424 16.4059 15.2883C16.9432 14.9102 17.4803 14.5322 18.0207 14.1598C18.0461 14.1436 18.0746 14.1251 18.1059 14.1049C18.5662 13.8064 19.6016 13.1353 19.2186 14.0601C18.313 15.0505 17.3429 15.9271 16.3677 16.8087C15.7103 17.4027 15.0506 17.999 14.4066 18.6337C13.8457 19.0894 13.2633 20.0059 13.8913 20.6441C15.3379 21.6567 16.8071 22.6449 18.2755 23.6325C18.7533 23.9538 19.2311 24.2751 19.7079 24.5973C20.516 25.2425 21.779 24.7205 21.9567 23.7123C22.0357 23.2485 22.115 22.7848 22.1943 22.321C22.6327 19.7579 23.0713 17.1938 23.4587 14.6223C23.5113 14.2189 23.571 13.8156 23.6307 13.4121C23.7755 12.434 23.9204 11.4547 23.9657 10.4714C23.849 9.49007 22.6591 9.70587 21.997 9.92653C18.5935 11.2216 15.2241 12.6127 11.8679 14.0283C11.4877 14.1967 11.1023 14.3649 10.7143 14.5343Z" fill="white"/>
<path fill-rule="evenodd" clip-rule="evenodd" d="M28.079 32C32.2345 28.9847 35.0688 22.9639 35.0688 16.0284C35.0688 9.04911 32.1985 2.99608 28 0H209.797C222.951 6.36456 223.228 25.0015 210.269 31.7541L209.797 32H28.079Z" fill="white"/>
<path d="M59.9688 8.736H54.0648V7.2H67.6488V8.736H61.7448V24H59.9688V8.736ZM82.366 22.464V24H70.486V7.2H82.006V8.736H72.262V14.712H80.95V16.224H72.262V22.464H82.366ZM86.5407 7.2H88.3167V22.464H97.7247V24H86.5407V7.2ZM112.554 22.464V24H100.674V7.2H112.194V8.736H102.45V14.712H111.138V16.224H102.45V22.464H112.554ZM128.466 15.6H130.17V22.008C129.386 22.696 128.458 23.224 127.386 23.592C126.314 23.96 125.186 24.144 124.002 24.144C122.322 24.144 120.81 23.776 119.466 23.04C118.122 22.304 117.066 21.288 116.298 19.992C115.53 18.68 115.146 17.216 115.146 15.6C115.146 13.984 115.53 12.528 116.298 11.232C117.066 9.92 118.122 8.896 119.466 8.16C120.81 7.424 122.33 7.056 124.026 7.056C125.306 7.056 126.482 7.264 127.554 7.68C128.626 8.08 129.53 8.68 130.266 9.48L129.162 10.608C127.834 9.296 126.146 8.64 124.098 8.64C122.738 8.64 121.506 8.944 120.402 9.552C119.314 10.144 118.458 10.976 117.834 12.048C117.21 13.104 116.898 14.288 116.898 15.6C116.898 16.912 117.21 18.096 117.834 19.152C118.458 20.208 119.314 21.04 120.402 21.648C121.49 22.256 122.714 22.56 124.074 22.56C125.802 22.56 127.266 22.128 128.466 21.264V15.6ZM146.669 24L142.829 18.6C142.397 18.648 141.949 18.672 141.485 18.672H136.973V24H135.197V7.2H141.485C143.629 7.2 145.309 7.712 146.525 8.736C147.741 9.76 148.349 11.168 148.349 12.96C148.349 14.272 148.013 15.384 147.341 16.296C146.685 17.192 145.741 17.84 144.509 18.24L148.613 24H146.669ZM141.437 17.16C143.101 17.16 144.373 16.792 145.253 16.056C146.133 15.32 146.573 14.288 146.573 12.96C146.573 11.6 146.133 10.56 145.253 9.84C144.373 9.104 143.101 8.736 141.437 8.736H136.973V17.16H141.437ZM163.077 19.512H153.717L151.701 24H149.853L157.533 7.2H159.285L166.965 24H165.093L163.077 19.512ZM162.429 18.072L158.397 9.048L154.365 18.072H162.429ZM187.192 7.2V24H185.488V10.56L178.888 21.864H178.048L171.448 10.632V24H169.744V7.2H171.208L178.504 19.656L185.728 7.2H187.192Z" fill="#7B8B97"/>
</svg>
